<svg width="152" height="16" viewBox="0 0 152 16" fill="none" xmlns="http://www.w3.org/2000/svg">
<path d="M0.264205 0.454545H4.05682L8.0625 10.2273H8.23295L12.2386 0.454545H16.0312V15H13.0483V5.53267H12.9276L9.16335 14.929H7.1321L3.3679 5.49716H3.24716V15H0.264205V0.454545ZM31.9315 7.72727C31.9315 9.31345 31.6308 10.6629 31.0295 11.7756C30.4329 12.8883 29.6185 13.7382 28.5863 14.3253C27.5588 14.9077 26.4035 15.1989 25.1204 15.1989C23.8278 15.1989 22.6677 14.9053 21.6403 14.3182C20.6128 13.7311 19.8008 12.8812 19.2042 11.7685C18.6076 10.6558 18.3093 9.30871 18.3093 7.72727C18.3093 6.1411 18.6076 4.79167 19.2042 3.67898C19.8008 2.56629 20.6128 1.71875 21.6403 1.13636C22.6677 0.549242 23.8278 0.255681 25.1204 0.255681C26.4035 0.255681 27.5588 0.549242 28.5863 1.13636C29.6185 1.71875 30.4329 2.56629 31.0295 3.67898C31.6308 4.79167 31.9315 6.1411 31.9315 7.72727ZM28.8136 7.72727C28.8136 6.69981 28.6597 5.83333 28.3519 5.12784C28.0489 4.42235 27.6204 3.88731 27.0664 3.52273C26.5124 3.15814 25.8638 2.97585 25.1204 2.97585C24.377 2.97585 23.7283 3.15814 23.1744 3.52273C22.6204 3.88731 22.1895 4.42235 21.8817 5.12784C21.5787 5.83333 21.4272 6.69981 21.4272 7.72727C21.4272 8.75473 21.5787 9.62121 21.8817 10.3267C22.1895 11.0322 22.6204 11.5672 23.1744 11.9318C23.7283 12.2964 24.377 12.4787 25.1204 12.4787C25.8638 12.4787 26.5124 12.2964 27.0664 11.9318C27.6204 11.5672 28.0489 11.0322 28.3519 10.3267C28.6597 9.62121 28.8136 8.75473 28.8136 7.72727ZM36.017 0.454545L39.5327 11.5057H39.6676L43.1903 0.454545H46.5994L41.5852 15H37.6222L32.6009 0.454545H36.017ZM51.4254 0.454545V15H48.3501V0.454545H51.4254ZM53.9556 15V0.454545H63.7567V2.99006H57.0309V6.45597H63.2525V8.99148H57.0309V12.4645H63.7852V15H53.9556ZM78.7212 4.63778C78.6644 4.06487 78.4206 3.61979 77.9897 3.30256C77.5588 2.98532 76.9741 2.8267 76.2354 2.8267C75.7335 2.8267 75.3098 2.89773 74.9641 3.03977C74.6185 3.17708 74.3533 3.36884 74.1687 3.61506C73.9888 3.86127 73.8988 4.14062 73.8988 4.45312C73.8893 4.71354 73.9438 4.94081 74.0621 5.13494C74.1853 5.32907 74.3533 5.49716 74.5664 5.6392C74.7795 5.77651 75.0257 5.89725 75.305 6.00142C75.5844 6.10085 75.8827 6.18608 76.1999 6.2571L77.5067 6.5696C78.1412 6.71165 78.7236 6.90104 79.2539 7.13778C79.7842 7.37453 80.2435 7.66572 80.6317 8.01136C81.02 8.35701 81.3207 8.7642 81.5337 9.23295C81.7515 9.7017 81.8628 10.2391 81.8675 10.8452C81.8628 11.7353 81.6355 12.5071 81.1857 13.1605C80.7406 13.8092 80.0967 14.3134 79.2539 14.6733C78.4158 15.0284 77.4049 15.206 76.2212 15.206C75.047 15.206 74.0243 15.026 73.1531 14.6662C72.2866 14.3063 71.6095 13.7737 71.1218 13.0682C70.6388 12.358 70.3855 11.4796 70.3619 10.4332H73.3377C73.3709 10.9209 73.5105 11.3281 73.7567 11.6548C74.0077 11.9768 74.3415 12.2206 74.7582 12.3864C75.1796 12.5473 75.6554 12.6278 76.1857 12.6278C76.7066 12.6278 77.1587 12.5521 77.5423 12.4006C77.9305 12.2491 78.2312 12.0384 78.4442 11.7685C78.6573 11.4986 78.7638 11.1884 78.7638 10.8381C78.7638 10.5114 78.6668 10.2367 78.4727 10.0142C78.2833 9.79167 78.0039 9.60227 77.6346 9.44602C77.27 9.28977 76.8226 9.14773 76.2923 9.01989L74.7085 8.62216C73.4821 8.32386 72.5138 7.85748 71.8036 7.22301C71.0934 6.58854 70.7406 5.7339 70.7454 4.65909C70.7406 3.77841 70.975 3.009 71.4485 2.35085C71.9267 1.69271 72.5825 1.17898 73.4158 0.809659C74.2492 0.44034 75.1961 0.255681 76.2567 0.255681C77.3363 0.255681 78.2785 0.44034 79.0835 0.809659C79.8931 1.17898 80.5228 1.69271 80.9727 2.35085C81.4225 3.009 81.6545 3.77131 81.6687 4.63778H78.7212ZM83.9361 15V0.454545H93.7372V2.99006H87.0114V6.45597H93.233V8.99148H87.0114V12.4645H93.7656V15H83.9361ZM98.6893 15H95.3938L100.415 0.454545H104.378L109.392 15H106.097L102.453 3.77841H102.34L98.6893 15ZM98.4833 9.28267H106.267V11.6832H98.4833V9.28267ZM111.143 15V0.454545H116.882C117.98 0.454545 118.918 0.651041 119.694 1.04403C120.475 1.43229 121.07 1.9839 121.477 2.69886C121.889 3.40909 122.095 4.24479 122.095 5.20597C122.095 6.17187 121.886 7.00284 121.47 7.69886C121.053 8.39015 120.449 8.92045 119.659 9.28977C118.873 9.65909 117.921 9.84375 116.804 9.84375H112.961V7.37216H116.306C116.894 7.37216 117.381 7.29167 117.77 7.13068C118.158 6.9697 118.447 6.72822 118.636 6.40625C118.83 6.08428 118.927 5.68419 118.927 5.20597C118.927 4.72301 118.83 4.31581 118.636 3.98438C118.447 3.65294 118.155 3.40199 117.762 3.23153C117.374 3.05634 116.884 2.96875 116.292 2.96875H114.218V15H111.143ZM118.998 8.38068L122.613 15H119.218L115.681 8.38068H118.998ZM137.102 5.54688H133.991C133.934 5.14441 133.818 4.78693 133.643 4.47443C133.468 4.1572 133.243 3.88731 132.968 3.66477C132.694 3.44223 132.377 3.27178 132.017 3.15341C131.662 3.03504 131.276 2.97585 130.859 2.97585C130.106 2.97585 129.45 3.16288 128.892 3.53693C128.333 3.90625 127.9 4.44602 127.592 5.15625C127.284 5.86174 127.13 6.71875 127.13 7.72727C127.13 8.7642 127.284 9.63542 127.592 10.3409C127.904 11.0464 128.34 11.5791 128.899 11.9389C129.458 12.2988 130.104 12.4787 130.838 12.4787C131.25 12.4787 131.631 12.4242 131.981 12.3153C132.336 12.2064 132.651 12.0478 132.926 11.8395C133.2 11.6264 133.428 11.3684 133.608 11.0653C133.792 10.7623 133.92 10.4167 133.991 10.0284L137.102 10.0426C137.021 10.7102 136.82 11.3542 136.498 11.9744C136.181 12.59 135.752 13.1416 135.213 13.6293C134.678 14.1122 134.038 14.4957 133.295 14.7798C132.556 15.0592 131.721 15.1989 130.788 15.1989C129.491 15.1989 128.331 14.9053 127.308 14.3182C126.29 13.7311 125.485 12.8812 124.893 11.7685C124.306 10.6558 124.012 9.30871 124.012 7.72727C124.012 6.1411 124.311 4.79167 124.907 3.67898C125.504 2.56629 126.314 1.71875 127.336 1.13636C128.359 0.549242 129.51 0.255681 130.788 0.255681C131.631 0.255681 132.412 0.374053 133.132 0.610795C133.856 0.847538 134.498 1.19318 135.056 1.64773C135.615 2.09754 136.07 2.64915 136.42 3.30256C136.775 3.95597 137.002 4.70407 137.102 5.54688ZM139.307 15V0.454545H142.382V6.45597H148.625V0.454545H151.694V15H148.625V8.99148H142.382V15H139.307Z" fill="black"/>
</svg>
